<?xml version="1.0" standalone="no"?>
<svg xmlns:xlink="http://www.w3.org/1999/xlink" id="wave" style="transform:rotate(180deg); transition: 0.3s" viewBox="0 0 1440 490" version="1.1" xmlns="http://www.w3.org/2000/svg"><defs><linearGradient id="sw-gradient-0" x1="0" x2="0" y1="1" y2="0"><stop stop-color="rgba(12, 35, 179, 1)" offset="0%"/><stop stop-color="rgba(55, 94, 255, 1)" offset="100%"/></linearGradient></defs><path style="transform:translate(0, 0px); opacity:1" fill="url(#sw-gradient-0)" d="M0,294L30,302.2C60,310,120,327,180,310.3C240,294,300,245,360,261.3C420,278,480,359,540,375.7C600,392,660,343,720,285.8C780,229,840,163,900,163.3C960,163,1020,229,1080,253.2C1140,278,1200,261,1260,245C1320,229,1380,212,1440,171.5C1500,131,1560,65,1620,57.2C1680,49,1740,98,1800,130.7C1860,163,1920,180,1980,171.5C2040,163,2100,131,2160,163.3C2220,196,2280,294,2340,302.2C2400,310,2460,229,2520,196C2580,163,2640,180,2700,179.7C2760,180,2820,163,2880,138.8C2940,114,3000,82,3060,65.3C3120,49,3180,49,3240,81.7C3300,114,3360,180,3420,228.7C3480,278,3540,310,3600,269.5C3660,229,3720,114,3780,114.3C3840,114,3900,229,3960,277.7C4020,327,4080,310,4140,253.2C4200,196,4260,98,4290,49L4320,0L4320,490L4290,490C4260,490,4200,490,4140,490C4080,490,4020,490,3960,490C3900,490,3840,490,3780,490C3720,490,3660,490,3600,490C3540,490,3480,490,3420,490C3360,490,3300,490,3240,490C3180,490,3120,490,3060,490C3000,490,2940,490,2880,490C2820,490,2760,490,2700,490C2640,490,2580,490,2520,490C2460,490,2400,490,2340,490C2280,490,2220,490,2160,490C2100,490,2040,490,1980,490C1920,490,1860,490,1800,490C1740,490,1680,490,1620,490C1560,490,1500,490,1440,490C1380,490,1320,490,1260,490C1200,490,1140,490,1080,490C1020,490,960,490,900,490C840,490,780,490,720,490C660,490,600,490,540,490C480,490,420,490,360,490C300,490,240,490,180,490C120,490,60,490,30,490L0,490Z"/></svg>