<?xml version="1.0" standalone="no"?>
<svg xmlns:xlink="http://www.w3.org/1999/xlink" id="wave" style="transform:rotate(180deg); transition: 0.3s" viewBox="0 0 1440 490" version="1.1" xmlns="http://www.w3.org/2000/svg"><defs><linearGradient id="sw-gradient-0" x1="0" x2="0" y1="1" y2="0"><stop stop-color="rgba(12, 35, 179, 1)" offset="0%"/><stop stop-color="rgba(55, 94, 255, 1)" offset="100%"/></linearGradient></defs><path style="transform:translate(0, 0px); opacity:1" fill="url(#sw-gradient-0)" d="M0,294L16,302.2C32,310,64,327,96,310.3C128,294,160,245,192,261.3C224,278,256,359,288,375.7C320,392,352,343,384,285.8C416,229,448,163,480,163.3C512,163,544,229,576,253.2C608,278,640,261,672,245C704,229,736,212,768,171.5C800,131,832,65,864,57.2C896,49,928,98,960,130.7C992,163,1024,180,1056,171.5C1088,163,1120,131,1152,163.3C1184,196,1216,294,1248,302.2C1280,310,1312,229,1344,196C1376,163,1408,180,1440,179.7C1472,180,1504,163,1536,138.8C1568,114,1600,82,1632,65.3C1664,49,1696,49,1728,81.7C1760,114,1792,180,1824,228.7C1856,278,1888,310,1920,269.5C1952,229,1984,114,2016,114.3C2048,114,2080,229,2112,277.7C2144,327,2176,310,2208,253.2C2240,196,2272,98,2288,49L2304,0L2304,490L2288,490C2272,490,2240,490,2208,490C2176,490,2144,490,2112,490C2080,490,2048,490,2016,490C1984,490,1952,490,1920,490C1888,490,1856,490,1824,490C1792,490,1760,490,1728,490C1696,490,1664,490,1632,490C1600,490,1568,490,1536,490C1504,490,1472,490,1440,490C1408,490,1376,490,1344,490C1312,490,1280,490,1248,490C1216,490,1184,490,1152,490C1120,490,1088,490,1056,490C1024,490,992,490,960,490C928,490,896,490,864,490C832,490,800,490,768,490C736,490,704,490,672,490C640,490,608,490,576,490C544,490,512,490,480,490C448,490,416,490,384,490C352,490,320,490,288,490C256,490,224,490,192,490C160,490,128,490,96,490C64,490,32,490,16,490L0,490Z"/></svg>